<?xml version="1.0" encoding="UTF-8"?>
<svg width="531px" height="316px" viewBox="0 0 531 316" version="1.1" xmlns="http://www.w3.org/2000/svg" xmlns:xlink="http://www.w3.org/1999/xlink">
    <!-- Generator: Sketch 43.1 (39012) - http://www.bohemiancoding.com/sketch -->
    <title>Session Based Auth</title>
    <desc>Created with Sketch.</desc>
    <defs>
        <rect id="path-1" x="0" y="0" width="42" height="74" rx="5"></rect>
        <rect id="path-2" x="0" y="0" width="42" height="74" rx="5"></rect>
        <rect id="path-3" x="0" y="0" width="42" height="74" rx="5"></rect>
        <rect id="path-4" x="36" y="0" width="46" height="13" rx="6.5"></rect>
        <rect id="path-5" x="36" y="0" width="46" height="13" rx="6.5"></rect>
        <rect id="path-6" x="36" y="0" width="46" height="13" rx="6.5"></rect>
        <rect id="path-7" x="36" y="0" width="46" height="13" rx="6.5"></rect>
    </defs>
    <g id="Page-1" stroke="none" stroke-width="1" fill="none" fill-rule="evenodd">
        <g id="Session-Based-Auth">
            <g id="tiles/mobile">
                <g id="mobile">
                    <g id="Rectangle-10">
                        <use fill="#EEF2F6" fill-rule="evenodd" xlink:href="#path-1"></use>
                        <rect stroke="#B8C5D0" stroke-width="2" x="1" y="1" width="40" height="72" rx="5"></rect>
                    </g>
                    <rect id="Rectangle-11" fill="#B8C5D0" x="14" y="7" width="14" height="2" rx="1"></rect>
                    <circle id="Oval-5" fill="#B8C5D0" cx="21" cy="65" r="4"></circle>
                </g>
            </g>
            <g id="tiles/mobile" transform="translate(0.000000, 121.000000)">
                <g id="mobile">
                    <g id="Rectangle-10">
                        <use fill="#EEF2F6" fill-rule="evenodd" xlink:href="#path-2"></use>
                        <rect stroke="#B8C5D0" stroke-width="2" x="1" y="1" width="40" height="72" rx="5"></rect>
                    </g>
                    <rect id="Rectangle-11" fill="#B8C5D0" x="14" y="7" width="14" height="2" rx="1"></rect>
                    <circle id="Oval-5" fill="#B8C5D0" cx="21" cy="65" r="4"></circle>
                </g>
            </g>
            <g id="tiles/mobile" transform="translate(0.000000, 242.000000)">
                <g id="mobile">
                    <g id="Rectangle-10">
                        <use fill="#EEF2F6" fill-rule="evenodd" xlink:href="#path-3"></use>
                        <rect stroke="#B8C5D0" stroke-width="2" x="1" y="1" width="40" height="72" rx="5"></rect>
                    </g>
                    <rect id="Rectangle-11" fill="#B8C5D0" x="14" y="7" width="14" height="2" rx="1"></rect>
                    <circle id="Oval-5" fill="#B8C5D0" cx="21" cy="65" r="4"></circle>
                </g>
            </g>
            <g id="Session-Store" transform="translate(182.000000, 8.000000)">
                <rect id="Rectangle" fill="#EEF3F6" x="0" y="0" width="150" height="300" rx="25"></rect>
                <text font-family="ArialMT, Arial" font-size="18" font-weight="normal" letter-spacing="0.300000012" fill="#89969F">
                    <tspan x="17.5197265" y="155">Session Store</tspan>
                </text>
            </g>
            <g id="arrows/arrow-4" transform="translate(342.000000, 37.000000)">
                <g id="arrow-4">
                    <path d="M119,3 L71.0035652,3 C65.4787487,3 61,7.47768095 61,13.0086735 L61,228.991326 C61,234.518964 65.4788511,239 71.0035652,239 L119,239" id="Path-4" stroke="#89969F"></path>
                    <path d="M61.5185909,121.471545 L0.995833406,121.471545" id="Path-5" stroke="#89969F"></path>
                    <polygon id="Triangle-2-Copy-2" fill="#89969F" points="117 6 117 0 120 3"></polygon>
                    <polygon id="Triangle-2-Copy-4" fill="#89969F" points="117 242 117 236 120 239"></polygon>
                </g>
            </g>
            <g id="arrows/tag-hor---arrow-1.2" transform="translate(344.000000, 152.000000)">
                <g id="tag-hor---arrow-1.2">
                    <path d="M0,6.5 L117.70202,6.5" id="Line" stroke="#89969F" stroke-linecap="square"></path>
                    <polygon id="Triangle" fill="#89969F" points="116 9 116 4 119 6.5"></polygon>
                    <g id="pill">
                        <use fill="#FFFFFF" fill-rule="evenodd" xlink:href="#path-4"></use>
                        <rect stroke="#89969F" stroke-width="1" x="36.5" y="0.5" width="45" height="12" rx="6"></rect>
                    </g>
                    <text id="Continue" font-family="ArialMT, Arial" font-size="8" font-weight="normal" letter-spacing="0.133333355" fill="#89969F">
                        <tspan x="42.4549478" y="9">Continue</tspan>
                    </text>
                </g>
            </g>
            <g id="tiles/main-page" transform="translate(472.000000, 0.000000)">
                <g id="main-page" transform="translate(-0.491667, 0.000000)">
                    <rect id="Rectangle-7" fill="#B8C5D0" x="0.991735537" y="0" width="58.4916667" height="74" rx="5"></rect>
                    <path d="M0.991735537,14.9006623 L59.4834022,14.9006623 L59.4834022,68.9994445 C59.4834022,71.7611751 57.2441238,74 54.4837995,74 L5.99133823,74 C3.23013391,74 0.991735537,71.7554024 0.991735537,68.9994445 L0.991735537,14.9006623 Z" id="Rectangle-7" fill="#EEF3F6"></path>
                    <ellipse id="Oval-4" fill="#DEE7EE" cx="8.42975207" cy="7.45033113" rx="2.47933884" ry="2.48344371"></ellipse>
                    <ellipse id="Oval-4" fill="#DEE7EE" cx="15.3719008" cy="7.45033113" rx="2.47933884" ry="2.48344371"></ellipse>
                    <ellipse id="Oval-4" fill="#DEE7EE" cx="22.3140496" cy="7.45033113" rx="2.47933884" ry="2.48344371"></ellipse>
                </g>
            </g>
            <g id="tiles/main-page" transform="translate(472.000000, 121.000000)">
                <g id="main-page" transform="translate(-0.491667, 0.000000)">
                    <rect id="Rectangle-7" fill="#B8C5D0" x="0.991735537" y="0" width="58.4916667" height="74" rx="5"></rect>
                    <path d="M0.991735537,14.9006623 L59.4834022,14.9006623 L59.4834022,68.9994445 C59.4834022,71.7611751 57.2441238,74 54.4837995,74 L5.99133823,74 C3.23013391,74 0.991735537,71.7554024 0.991735537,68.9994445 L0.991735537,14.9006623 Z" id="Rectangle-7" fill="#EEF3F6"></path>
                    <ellipse id="Oval-4" fill="#DEE7EE" cx="8.42975207" cy="7.45033113" rx="2.47933884" ry="2.48344371"></ellipse>
                    <ellipse id="Oval-4" fill="#DEE7EE" cx="15.3719008" cy="7.45033113" rx="2.47933884" ry="2.48344371"></ellipse>
                    <ellipse id="Oval-4" fill="#DEE7EE" cx="22.3140496" cy="7.45033113" rx="2.47933884" ry="2.48344371"></ellipse>
                </g>
            </g>
            <g id="tiles/main-page" transform="translate(472.000000, 234.000000)">
                <g id="main-page" transform="translate(-0.491667, 0.000000)">
                    <rect id="Rectangle-7" fill="#B8C5D0" x="0.991735537" y="0" width="58.4916667" height="74" rx="5"></rect>
                    <path d="M0.991735537,14.9006623 L59.4834022,14.9006623 L59.4834022,68.9994445 C59.4834022,71.7611751 57.2441238,74 54.4837995,74 L5.99133823,74 C3.23013391,74 0.991735537,71.7554024 0.991735537,68.9994445 L0.991735537,14.9006623 Z" id="Rectangle-7" fill="#EEF3F6"></path>
                    <ellipse id="Oval-4" fill="#DEE7EE" cx="8.42975207" cy="7.45033113" rx="2.47933884" ry="2.48344371"></ellipse>
                    <ellipse id="Oval-4" fill="#DEE7EE" cx="15.3719008" cy="7.45033113" rx="2.47933884" ry="2.48344371"></ellipse>
                    <ellipse id="Oval-4" fill="#DEE7EE" cx="22.3140496" cy="7.45033113" rx="2.47933884" ry="2.48344371"></ellipse>
                </g>
            </g>
            <g id="arrows/tag-hor---arrow-1.2" transform="translate(52.000000, 31.000000)">
                <g id="tag-hor---arrow-1.2">
                    <path d="M0,6.5 L117.70202,6.5" id="Line" stroke="#89969F" stroke-linecap="square"></path>
                    <polygon id="Triangle" fill="#89969F" points="116 9 116 4 119 6.5"></polygon>
                    <g id="pill">
                        <use fill="#FFFFFF" fill-rule="evenodd" xlink:href="#path-5"></use>
                        <rect stroke="#89969F" stroke-width="1" x="36.5" y="0.5" width="45" height="12" rx="6"></rect>
                    </g>
                    <text id="Service-1" font-family="ArialMT, Arial" font-size="8" font-weight="normal" letter-spacing="0.133333355" fill="#89969F">
                        <tspan x="41.7261718" y="9">Service 1</tspan>
                    </text>
                </g>
            </g>
            <g id="arrows/tag-hor---arrow-1.2" transform="translate(52.000000, 273.000000)">
                <g id="tag-hor---arrow-1.2">
                    <path d="M0,6.5 L117.70202,6.5" id="Line" stroke="#89969F" stroke-linecap="square"></path>
                    <polygon id="Triangle" fill="#89969F" points="116 9 116 4 119 6.5"></polygon>
                    <g id="pill">
                        <use fill="#FFFFFF" fill-rule="evenodd" xlink:href="#path-6"></use>
                        <rect stroke="#89969F" stroke-width="1" x="36.5" y="0.5" width="45" height="12" rx="6"></rect>
                    </g>
                    <text id="Service-1" font-family="ArialMT, Arial" font-size="8" font-weight="normal" letter-spacing="0.133333355" fill="#89969F">
                        <tspan x="41.7261718" y="9">Service 1</tspan>
                    </text>
                </g>
            </g>
            <g id="arrows/tag-hor---arrow-1.2" transform="translate(52.000000, 152.000000)">
                <g id="tag-hor---arrow-1.2">
                    <path d="M0,6.5 L117.70202,6.5" id="Line" stroke="#89969F" stroke-linecap="square"></path>
                    <polygon id="Triangle" fill="#89969F" points="116 9 116 4 119 6.5"></polygon>
                    <g id="pill">
                        <use fill="#FFFFFF" fill-rule="evenodd" xlink:href="#path-7"></use>
                        <rect stroke="#89969F" stroke-width="1" x="36.5" y="0.5" width="45" height="12" rx="6"></rect>
                    </g>
                    <text id="Service-1" font-family="ArialMT, Arial" font-size="8" font-weight="normal" letter-spacing="0.133333355" fill="#89969F">
                        <tspan x="41.7261718" y="9">Service 1</tspan>
                    </text>
                </g>
            </g>
        </g>
    </g>
</svg>